<?xml version="1.0" encoding="UTF-8"?>
<svg id="Layer_2" data-name="Layer 2" xmlns="http://www.w3.org/2000/svg" xmlns:xlink="http://www.w3.org/1999/xlink" viewBox="0 0 105.27 24.67">
  <defs>
    <style>
      .cls-1 {
        fill: #fff;
        font-family: Arial-Black, 'Arial Black';
        font-size: 21.18px;
        font-weight: 800;
      }

      .cls-2 {
        fill: url(#linear-gradient);
      }

      .cls-3 {
        letter-spacing: 0em;
      }

      .cls-4 {
        letter-spacing: -.02em;
      }
    </style>
    <linearGradient id="linear-gradient" x1="13.98" y1="11.92" x2="91.47" y2="33" gradientUnits="userSpaceOnUse">
      <stop offset="0" stop-color="#000fff"/>
      <stop offset=".46" stop-color="#fff"/>
    </linearGradient>
  </defs>
  <g id="Layer_1-2" data-name="Layer 1">
    <path class="cls-2" d="M7.72,21.93c.01-.24,4.03.18,11.27-.17,19.65-.95,32.69-6.04,33.99-3.06.14.33.2.89-.34,1.84.54,0,1.71.02,3.18,0,13.86-.15,29.47-2.31,37.58,1.46.52.24,1.47.72,1.4,1.08-.16.8-5.43.07-14.11,0-3.03-.02-5.33.04-6.02.06-6.94.21-13.89.34-20.83.54-1.32.04-4.23.09-5.03-1.47-.18-.35-.21-.69-.21-.89-2.94.53-7.01,1.17-11.87,1.57-15.62,1.31-29.02-.53-29-.96Z"/>
    <text class="cls-1" transform="translate(0 18.17)"><tspan x="0" y="0">&lt; N</tspan><tspan class="cls-4" x="38.69" y="0">a</tspan><tspan class="cls-3" x="52.46" y="0">vs /&gt;</tspan></text>
  </g>
</svg>