<?xml version="1.0" encoding="UTF-8"?>
<svg id="Layer_2" data-name="Layer 2" xmlns="http://www.w3.org/2000/svg" xmlns:xlink="http://www.w3.org/1999/xlink" viewBox="0 0 104.61 24.52">
  <defs>
    <style>
      .cls-1 {
        fill: url(#linear-gradient);
      }

      .cls-2 {
        fill: #231f20;
        font-family: Arial-Black, 'Arial Black';
        font-size: 21.05px;
        font-weight: 800;
      }

      .cls-3 {
        letter-spacing: -.02em;
      }
    </style>
    <linearGradient id="linear-gradient" x1="13.32" y1="-59.27" x2="90.81" y2="-80.35" gradientTransform="translate(0 -47.71) scale(1 -1)" gradientUnits="userSpaceOnUse">
      <stop offset="0" stop-color="#000fff"/>
      <stop offset=".46" stop-color="#fff"/>
    </linearGradient>
  </defs>
  <g id="Layer_2-2" data-name="Layer 2">
    <g id="Layer_1-2" data-name="Layer 1-2">
      <path class="cls-1" d="M7.06,21.57c.01-.24,4.03.18,11.27-.17,19.65-.95,32.69-6.04,33.99-3.06.14.33.2.89-.34,1.84.54,0,1.71.02,3.18,0,13.86-.15,29.47-2.31,37.58,1.46.52.24,1.47.72,1.4,1.08-.16.8-5.43.07-14.11,0-3.03-.02-5.33.04-6.02.06-6.94.21-13.89.34-20.83.54-1.32.04-4.23.09-5.03-1.47-.18-.35-.21-.69-.21-.89-2.94.53-7.01,1.17-11.87,1.57-15.62,1.31-29.02-.53-29-.96h-.01Z"/>
    </g>
    <text class="cls-2" transform="translate(0 18.06)"><tspan x="0" y="0">&lt; N</tspan><tspan class="cls-3" x="38.45" y="0">a</tspan><tspan x="52.13" y="0">vs /&gt;</tspan></text>
  </g>
</svg>